<?xml version="1.0" encoding="utf-8"?>
<!-- Generator: Adobe Illustrator 17.0.0, SVG Export Plug-In . SVG Version: 6.00 Build 0)  -->
<!DOCTYPE svg PUBLIC "-//W3C//DTD SVG 1.1//EN" "http://www.w3.org/Graphics/SVG/1.1/DTD/svg11.dtd">
<svg version="1.1" id="Layer_1" xmlns="http://www.w3.org/2000/svg" xmlns:xlink="http://www.w3.org/1999/xlink" x="0px" y="0px"
	 width="116.833px" height="47.333px" viewBox="0 0 116.833 47.333" enable-background="new 0 0 116.833 47.333"
	 xml:space="preserve">
<g>
	<g>
		<g>
			<path fill="#1AB4B6" d="M21.3,12.401l-0.706-5.816c-0.783,0.091-1.85,0.318-2.625,0.559l1.723,5.597
				C20.211,12.584,20.752,12.47,21.3,12.401z"/>
			<path fill="#1AB4B6" d="M8.22,15.926c-0.313,0.724-0.65,1.762-0.829,2.553l5.709,1.306c0.124-0.535,0.295-1.061,0.507-1.563
				L8.22,15.926z"/>
			<path fill="#1AB4B6" d="M11.919,33.308l3.987-4.293c-0.404-0.378-0.774-0.787-1.101-1.219l-4.682,3.517
				C10.591,31.945,11.322,32.755,11.919,33.308z"/>
			<path fill="#1AB4B6" d="M23.693,31.543l0.706,5.816c0.783-0.091,1.85-0.318,2.625-0.559l-1.723-5.597
				C24.782,31.361,24.242,31.475,23.693,31.543z"/>
			<path fill="#1AB4B6" d="M36.773,28.019c0.313-0.724,0.65-1.762,0.829-2.553l-5.709-1.306c-0.125,0.536-0.295,1.061-0.507,1.563
				L36.773,28.019z"/>
			<path fill="#1AB4B6" d="M33.075,10.638l-3.987,4.293c0.404,0.377,0.774,0.787,1.102,1.219l4.682-3.517
				C34.401,11.999,33.67,11.188,33.075,10.638z"/>
		</g>
		<g>
			<path fill="#23B5B6" d="M21.3,12.401l-0.706-5.816c-0.783,0.091-1.85,0.318-2.625,0.559l1.723,5.597
				C20.211,12.584,20.752,12.47,21.3,12.401z"/>
			<path fill="#23B5B6" d="M8.22,15.926c-0.313,0.724-0.65,1.762-0.829,2.553l5.709,1.306c0.124-0.535,0.295-1.061,0.507-1.563
				L8.22,15.926z"/>
			<path fill="#23B5B6" d="M11.919,33.308l3.987-4.293c-0.404-0.378-0.774-0.787-1.101-1.219l-4.682,3.517
				C10.591,31.945,11.322,32.755,11.919,33.308z"/>
			<path fill="#23B5B6" d="M23.693,31.543l0.706,5.816c0.783-0.091,1.85-0.318,2.625-0.559l-1.723-5.597
				C24.782,31.361,24.242,31.475,23.693,31.543z"/>
			<path fill="#23B5B6" d="M36.773,28.019c0.313-0.724,0.65-1.762,0.829-2.553l-5.709-1.306c-0.125,0.536-0.295,1.061-0.507,1.563
				L36.773,28.019z"/>
			<path fill="#23B5B6" d="M33.075,10.638l-3.987,4.293c0.404,0.377,0.774,0.787,1.102,1.219l4.682-3.517
				C34.401,11.999,33.67,11.188,33.075,10.638z"/>
		</g>
	</g>
	<g>
		<g>
			<path fill="#92C020" d="M14.804,16.153c0.334-0.441,0.703-0.852,1.098-1.222l-1.606-1.727l-3.094-3.287
				c-0.69,0.646-1.326,1.354-1.893,2.103l1.094,0.832L14.804,16.153z"/>
			<path fill="#92C020" d="M7.28,28.418l1.294-0.543l5.033-2.148c-0.21-0.497-0.379-1.023-0.505-1.564L10.8,24.691l-4.396,1.036
				C6.617,26.643,6.911,27.548,7.28,28.418z"/>
			<path fill="#92C020" d="M19.696,31.207l-0.712,2.317l-1.282,4.263c0.9,0.273,1.831,0.469,2.769,0.583l0.182-1.427l0.652-5.397
				C20.753,31.477,20.212,31.363,19.696,31.207z"/>
			<path fill="#92C020" d="M30.19,27.792c-0.333,0.44-0.702,0.851-1.098,1.222l1.637,1.761l3.063,3.254
				c0.689-0.646,1.326-1.353,1.893-2.103l-1.121-0.852L30.19,27.792z"/>
			<path fill="#92C020" d="M37.713,15.527l-1.293,0.542l-5.034,2.149c0.21,0.498,0.38,1.023,0.505,1.564l2.372-0.544l4.327-1.02
				C38.377,17.301,38.082,16.396,37.713,15.527z"/>
			<path fill="#92C020" d="M25.298,12.738L26,10.455l1.292-4.297c-0.9-0.272-1.831-0.469-2.769-0.583L24.35,6.936L23.69,12.4
				C24.24,12.467,24.781,12.581,25.298,12.738z"/>
		</g>
		<g>
			<path fill="#92C020" d="M14.804,16.153c0.334-0.441,0.703-0.852,1.098-1.222l-1.606-1.727l-3.094-3.287
				c-0.69,0.646-1.326,1.354-1.893,2.103l1.094,0.832L14.804,16.153z"/>
			<path fill="#92C020" d="M7.28,28.418l1.294-0.543l5.033-2.148c-0.21-0.497-0.379-1.023-0.505-1.564L10.8,24.691l-4.396,1.036
				C6.617,26.643,6.911,27.548,7.28,28.418z"/>
			<path fill="#92C020" d="M19.696,31.207l-0.712,2.317l-1.282,4.263c0.9,0.273,1.831,0.469,2.769,0.583l0.182-1.427l0.652-5.397
				C20.753,31.477,20.212,31.363,19.696,31.207z"/>
			<path fill="#92C020" d="M30.19,27.792c-0.333,0.44-0.702,0.851-1.098,1.222l1.637,1.761l3.063,3.254
				c0.689-0.646,1.326-1.353,1.893-2.103l-1.121-0.852L30.19,27.792z"/>
			<path fill="#92C020" d="M37.713,15.527l-1.293,0.542l-5.034,2.149c0.21,0.498,0.38,1.023,0.505,1.564l2.372-0.544l4.327-1.02
				C38.377,17.301,38.082,16.396,37.713,15.527z"/>
			<path fill="#92C020" d="M25.298,12.738L26,10.455l1.292-4.297c-0.9-0.272-1.831-0.469-2.769-0.583L24.35,6.936L23.69,12.4
				C24.24,12.467,24.781,12.581,25.298,12.738z"/>
		</g>
	</g>
	<g>
		<path fill="#297FC2" d="M16.596,4.863c-0.99,0.341-1.957,0.771-2.873,1.279l3.088,5.545c0.585-0.325,1.201-0.602,1.842-0.824
			L16.596,4.863z"/>
		<path fill="#297FC2" d="M4.728,18.527c-0.198,1.024-0.307,2.076-0.324,3.129l6.368,0.098c0.012-0.683,0.081-1.352,0.205-2.003
			L4.728,18.527z"/>
		<path fill="#297FC2" d="M10.633,35.634c0.794,0.689,1.649,1.311,2.543,1.85l3.273-5.471c-0.577-0.348-1.121-0.744-1.627-1.183
			L10.633,35.634z"/>
		<path fill="#297FC2" d="M28.398,39.082c0.99-0.341,1.956-0.771,2.873-1.279l-3.103-5.572c-0.584,0.323-1.198,0.598-1.837,0.82
			L28.398,39.082z"/>
		<path fill="#297FC2" d="M40.266,25.418c0.198-1.024,0.307-2.076,0.324-3.129l-6.369-0.098c-0.013,0.683-0.085,1.352-0.211,2.002
			L40.266,25.418z"/>
		<path fill="#297FC2" d="M34.361,8.311C33.567,7.622,32.712,7,31.818,6.461l-3.257,5.446c0.577,0.35,1.122,0.748,1.629,1.189
			L34.361,8.311z"/>
	</g>
	<g>
		<g>
			<path fill="#36A3DD" d="M13.168,6.463c-0.898,0.541-1.753,1.163-2.543,1.851l4.176,4.784c0.506-0.441,1.051-0.84,1.628-1.19
				L13.168,6.463z"/>
			<path fill="#36A3DD" d="M4.405,22.297c0.01,0.531,0.042,1.058,0.096,1.567c0.054,0.511,0.132,1.035,0.234,1.56l6.25-1.228
				c-0.126-0.65-0.198-1.318-0.212-2.002L4.405,22.297z"/>
			<path fill="#36A3DD" d="M13.731,37.804c0.915,0.508,1.881,0.939,2.873,1.281l2.064-6.033c-0.639-0.221-1.254-0.496-1.838-0.819
				L13.731,37.804z"/>
			<path fill="#36A3DD" d="M31.826,37.481c0.898-0.541,1.753-1.164,2.543-1.851l-4.193-4.804c-0.506,0.439-1.05,0.835-1.627,1.184
				L31.826,37.481z"/>
			<path fill="#36A3DD" d="M40.589,21.648c-0.01-0.531-0.042-1.058-0.096-1.567c-0.054-0.511-0.132-1.035-0.234-1.56l-6.244,1.227
				c0.124,0.65,0.194,1.319,0.205,2.003L40.589,21.648z"/>
			<path fill="#36A3DD" d="M28.228,11.597l3.035-5.456c-0.916-0.508-1.882-0.939-2.873-1.281l-2.053,6.002
				c0.641,0.222,1.256,0.498,1.841,0.823L28.228,11.597z"/>
		</g>
		<g>
			<path fill="#16A1DC" d="M13.168,6.463c-0.898,0.541-1.753,1.163-2.543,1.851l4.176,4.784c0.506-0.441,1.051-0.84,1.628-1.19
				L13.168,6.463z"/>
			<path fill="#16A1DC" d="M4.405,22.297c0.01,0.531,0.042,1.058,0.096,1.567c0.054,0.511,0.132,1.035,0.234,1.56l6.25-1.228
				c-0.126-0.65-0.198-1.318-0.212-2.002L4.405,22.297z"/>
			<path fill="#16A1DC" d="M13.731,37.804c0.915,0.508,1.881,0.939,2.873,1.281l2.064-6.033c-0.639-0.221-1.254-0.496-1.838-0.819
				L13.731,37.804z"/>
			<path fill="#16A1DC" d="M31.826,37.481c0.898-0.541,1.753-1.164,2.543-1.851l-4.193-4.804c-0.506,0.439-1.05,0.835-1.627,1.184
				L31.826,37.481z"/>
			<path fill="#16A1DC" d="M40.589,21.648c-0.01-0.531-0.042-1.058-0.096-1.567c-0.054-0.511-0.132-1.035-0.234-1.56l-6.244,1.227
				c0.124,0.65,0.194,1.319,0.205,2.003L40.589,21.648z"/>
			<path fill="#16A1DC" d="M28.228,11.597l3.035-5.456c-0.916-0.508-1.882-0.939-2.873-1.281l-2.053,6.002
				c0.641,0.222,1.256,0.498,1.841,0.823L28.228,11.597z"/>
		</g>
	</g>
	<g>
		<path fill="#42AB34" d="M7.669,11.601c-0.601,0.858-1.13,1.774-1.574,2.722l5.768,2.676c0.285-0.613,0.622-1.197,1.005-1.746
			L7.669,11.601z"/>
		<path fill="#42AB34" d="M6.096,29.63c0.441,0.945,0.971,1.861,1.575,2.722l5.216-3.668c-0.384-0.548-0.722-1.13-1.009-1.741
			L6.096,29.63z"/>
		<path fill="#42AB34" d="M37.324,32.344c0.601-0.858,1.13-1.774,1.574-2.723l-5.782-2.682c-0.287,0.611-0.625,1.193-1.008,1.741
			L37.324,32.344z"/>
		<path fill="#42AB34" d="M38.897,14.315c-0.441-0.946-0.971-1.861-1.575-2.722l-5.2,3.656c0.383,0.55,0.72,1.133,1.006,1.746
			L38.897,14.315z"/>
		<path fill="#42AB34" d="M23.503,10.261l0.562-6.318c-0.511-0.044-1.03-0.066-1.544-0.066c-0.531,0-1.069,0.024-1.601,0.07
			l0.565,6.314c0.333-0.028,0.67-0.044,1.011-0.044C22.836,10.218,23.172,10.233,23.503,10.261z"/>
		<path fill="#42AB34" d="M21.493,33.649L20.929,40c0.532,0.046,1.062,0.069,1.577,0.069c0.512,0,1.04-0.023,1.569-0.069
			l-0.57-6.352c-0.332,0.028-0.668,0.044-1.008,0.044C22.159,33.692,21.824,33.677,21.493,33.649z"/>
	</g>
</g>
<g>
	<g>
		<path fill="#FFFFFF" d="M60.316,21.483c1.504,0.443,2.81,1.681,2.81,3.738c0,2.39-1.704,4.514-5.553,4.514h-6.659V14.249h6.681
			c2.787,0,4.711,1.881,4.711,4.027c0,1.725-1.15,2.809-1.991,3.119v0.088H60.316z M56.887,20.376c1.017,0,1.681-0.62,1.681-1.526
			c0-0.863-0.641-1.527-1.703-1.527H54.63v3.053C54.63,20.376,56.887,20.376,56.887,20.376z M57.241,26.659
			c1.283,0,1.969-0.73,1.969-1.77c0-1.106-0.753-1.77-1.969-1.77H54.63v3.54H57.241z"/>
		<path fill="#FFFFFF" d="M72.502,29.733h-3.717v-6.105l-5.774-9.38h4.292l2.389,4.203c0.553,0.974,1.018,1.814,1.04,1.836h0.066
			c0.023-0.022,0.487-0.885,1.04-1.836l2.477-4.203h3.96l-5.774,9.38v6.105H72.502z"/>
		<path fill="#FFFFFF" d="M91.655,25.951c0-3.672,0.044-5.486,0.044-5.508h-0.044c-0.021,0.022-0.775,1.416-1.526,2.742
			l-1.505,2.721h-2.079l-1.504-2.676c-0.774-1.372-1.505-2.766-1.526-2.788h-0.067c0,0.022,0.044,1.836,0.044,5.508v3.782h-3.716
			V14.249h3.937l3.894,6.924h0.066l3.915-6.924h3.783v15.484h-3.716L91.655,25.951L91.655,25.951z"/>
		<path fill="#FFFFFF" d="M101.739,27.168l-0.929,2.565h-3.916l5.974-15.485h4.224l5.996,15.485h-3.982l-0.93-2.565H101.739z
			 M105.853,20.708c-0.486-1.283-0.841-2.256-0.863-2.279h-0.067c-0.022,0.023-0.376,0.974-0.863,2.257l-1.106,3.097h4.003
			L105.853,20.708z"/>
	</g>
	<g>
		<path fill="#FFFFFF" d="M53.269,34.124c0.202,0.158,0.304,0.377,0.304,0.656c0,0.211-0.059,0.388-0.176,0.531
			c-0.117,0.143-0.281,0.237-0.492,0.281c0.262,0.034,0.466,0.131,0.612,0.291s0.219,0.362,0.219,0.607
			c0,0.306-0.114,0.544-0.342,0.714c-0.228,0.17-0.544,0.255-0.949,0.255h-1.51v-3.571h1.495
			C52.787,33.886,53.067,33.965,53.269,34.124z M53.001,35.297c0.139-0.11,0.209-0.268,0.209-0.472c0-0.197-0.07-0.35-0.209-0.459
			c-0.14-0.109-0.335-0.161-0.587-0.158h-1.127v1.255h1.127C52.666,35.463,52.862,35.407,53.001,35.297z M53.126,36.96
			c0.168-0.121,0.253-0.29,0.253-0.508c0-0.214-0.085-0.381-0.255-0.5c-0.17-0.119-0.406-0.178-0.709-0.178h-1.127v1.367h1.127
			C52.721,37.141,52.958,37.081,53.126,36.96z"/>
		<path fill="#FFFFFF" d="M56.307,34.945c0.204,0.114,0.364,0.273,0.48,0.477c0.116,0.204,0.173,0.435,0.173,0.694
			c0,0.262-0.058,0.496-0.173,0.701c-0.116,0.206-0.275,0.366-0.48,0.48s-0.435,0.171-0.694,0.171c-0.258,0-0.49-0.057-0.694-0.171
			c-0.204-0.114-0.364-0.274-0.48-0.48s-0.173-0.439-0.173-0.701c0-0.258,0.058-0.49,0.173-0.694
			c0.116-0.204,0.275-0.363,0.48-0.477c0.204-0.114,0.435-0.171,0.694-0.171C55.872,34.774,56.103,34.831,56.307,34.945z
			 M55.093,35.203c-0.153,0.088-0.272,0.213-0.357,0.372c-0.085,0.16-0.128,0.342-0.128,0.546c0,0.208,0.043,0.391,0.128,0.551
			s0.204,0.284,0.357,0.372s0.327,0.133,0.52,0.133c0.194,0,0.367-0.044,0.52-0.133c0.153-0.088,0.272-0.213,0.357-0.372
			c0.085-0.16,0.128-0.343,0.128-0.551c0-0.204-0.043-0.386-0.128-0.546s-0.204-0.284-0.357-0.372s-0.326-0.133-0.52-0.133
			C55.42,35.07,55.246,35.114,55.093,35.203z"/>
		<path fill="#FFFFFF" d="M57.71,33.672h0.342v3.785H57.71V33.672z"/>
		<path fill="#FFFFFF" d="M60.118,35.108c-0.126-0.036-0.25-0.054-0.372-0.054c-0.17,0-0.307,0.033-0.411,0.099
			c-0.104,0.066-0.156,0.166-0.156,0.299c0,0.092,0.028,0.167,0.084,0.224c0.056,0.058,0.126,0.105,0.209,0.14
			c0.083,0.036,0.2,0.076,0.349,0.12c0.184,0.054,0.333,0.108,0.449,0.161c0.116,0.053,0.214,0.129,0.296,0.23
			c0.082,0.1,0.122,0.232,0.122,0.395c0,0.241-0.092,0.426-0.275,0.554c-0.184,0.128-0.413,0.191-0.689,0.191
			c-0.194,0-0.381-0.032-0.561-0.097c-0.18-0.064-0.332-0.156-0.454-0.275l0.138-0.245c0.116,0.106,0.253,0.189,0.411,0.25
			s0.319,0.092,0.482,0.092c0.18,0,0.327-0.037,0.441-0.112c0.114-0.075,0.171-0.184,0.171-0.326c0-0.099-0.029-0.179-0.087-0.242
			c-0.058-0.063-0.13-0.112-0.217-0.148c-0.087-0.036-0.207-0.077-0.36-0.125c-0.18-0.054-0.326-0.107-0.439-0.158
			c-0.112-0.051-0.207-0.125-0.286-0.222c-0.078-0.097-0.117-0.224-0.117-0.38c0-0.235,0.087-0.411,0.263-0.531
			c0.175-0.119,0.394-0.179,0.655-0.179c0.153,0,0.301,0.02,0.444,0.061s0.27,0.097,0.383,0.168l-0.133,0.26
			C60.358,35.194,60.244,35.144,60.118,35.108z"/>
		<path fill="#FFFFFF" d="M63.046,37.457l-0.005-0.449c-0.106,0.156-0.243,0.273-0.413,0.349s-0.366,0.115-0.587,0.115
			c-0.18,0-0.339-0.035-0.477-0.105s-0.244-0.166-0.319-0.288c-0.075-0.122-0.112-0.26-0.112-0.413c0-0.231,0.089-0.413,0.268-0.546
			c0.178-0.133,0.424-0.199,0.737-0.199h0.898v-0.204c0-0.211-0.063-0.374-0.189-0.49s-0.309-0.173-0.551-0.173
			c-0.286,0-0.573,0.107-0.862,0.321l-0.153-0.235c0.18-0.126,0.352-0.218,0.515-0.278c0.163-0.059,0.35-0.089,0.561-0.089
			c0.323,0,0.573,0.081,0.75,0.242c0.177,0.162,0.267,0.385,0.27,0.671l0.005,1.77L63.046,37.457L63.046,37.457z M62.707,37.021
			c0.165-0.11,0.276-0.266,0.334-0.467v-0.367h-0.862c-0.235,0-0.413,0.039-0.536,0.117c-0.122,0.078-0.184,0.196-0.184,0.352
			c0,0.16,0.059,0.288,0.176,0.385s0.273,0.145,0.467,0.145C62.341,37.187,62.542,37.132,62.707,37.021z"/>
		<path fill="#FFFFFF" d="M65.337,35.108c-0.126-0.036-0.25-0.054-0.372-0.054c-0.17,0-0.307,0.033-0.411,0.099
			c-0.104,0.066-0.156,0.166-0.156,0.299c0,0.092,0.028,0.167,0.084,0.224c0.056,0.058,0.126,0.105,0.209,0.14
			c0.083,0.036,0.2,0.076,0.349,0.12c0.184,0.054,0.333,0.108,0.449,0.161c0.116,0.053,0.214,0.129,0.296,0.23
			c0.082,0.1,0.122,0.232,0.122,0.395c0,0.241-0.092,0.426-0.275,0.554c-0.184,0.128-0.413,0.191-0.689,0.191
			c-0.194,0-0.381-0.032-0.561-0.097c-0.18-0.064-0.332-0.156-0.454-0.275l0.138-0.245c0.116,0.106,0.253,0.189,0.411,0.25
			c0.158,0.061,0.319,0.092,0.482,0.092c0.18,0,0.327-0.037,0.441-0.112s0.171-0.184,0.171-0.326c0-0.099-0.029-0.179-0.087-0.242
			s-0.13-0.112-0.217-0.148s-0.207-0.077-0.36-0.125c-0.18-0.054-0.326-0.107-0.439-0.158c-0.112-0.051-0.207-0.125-0.286-0.222
			c-0.078-0.097-0.117-0.224-0.117-0.38c0-0.235,0.087-0.411,0.263-0.531c0.175-0.119,0.394-0.179,0.655-0.179
			c0.153,0,0.301,0.02,0.444,0.061s0.27,0.097,0.383,0.168l-0.133,0.26C65.577,35.194,65.463,35.144,65.337,35.108z"/>
		<path fill="#FFFFFF" d="M68.462,38.304c-0.134,0.105-0.288,0.158-0.462,0.158c-0.208,0-0.391-0.061-0.551-0.184l0.153-0.265
			c0.119,0.082,0.247,0.123,0.383,0.123c0.109,0,0.207-0.036,0.296-0.107c0.088-0.071,0.161-0.175,0.219-0.311l0.112-0.276
			l-1.107-2.658h0.362l0.918,2.296l0.883-2.296h0.352l-1.234,3.056C68.704,38.044,68.596,38.199,68.462,38.304z"/>
		<path fill="#FFFFFF" d="M71.974,33.886h0.439l1.398,2.678l1.382-2.678h0.439v3.571h-0.326L75.3,34.376l-1.398,2.699h-0.194
			l-1.403-2.699v3.081h-0.332L71.974,33.886L71.974,33.886z"/>
		<path fill="#FFFFFF" d="M78.682,35.169c0.218,0.264,0.318,0.618,0.301,1.064h-2.229c0.024,0.286,0.129,0.516,0.316,0.691
			c0.187,0.175,0.418,0.263,0.694,0.263c0.17,0,0.328-0.031,0.474-0.092c0.146-0.061,0.272-0.148,0.377-0.26l0.194,0.194
			c-0.129,0.139-0.285,0.247-0.467,0.324s-0.382,0.115-0.599,0.115c-0.258,0-0.488-0.057-0.689-0.171
			c-0.201-0.114-0.358-0.273-0.472-0.477c-0.114-0.204-0.171-0.437-0.171-0.699c0-0.258,0.057-0.491,0.171-0.696
			c0.114-0.206,0.271-0.366,0.472-0.48s0.427-0.171,0.679-0.171C78.148,34.774,78.465,34.906,78.682,35.169z M78.677,35.968
			c-0.017-0.279-0.11-0.501-0.278-0.666s-0.389-0.247-0.661-0.247c-0.269,0-0.493,0.083-0.673,0.25s-0.284,0.388-0.311,0.663
			C76.754,35.968,78.677,35.968,78.677,35.968z"/>
		<path fill="#FFFFFF" d="M80.419,34.94c0.165-0.107,0.363-0.162,0.594-0.166v0.321c-0.282-0.003-0.509,0.079-0.681,0.247
			c-0.172,0.168-0.27,0.397-0.293,0.686v1.428h-0.342v-2.673h0.342v0.622C80.128,35.203,80.255,35.047,80.419,34.94z"/>
		<path fill="#FFFFFF" d="M82.626,35.075c-0.191,0-0.362,0.044-0.515,0.133c-0.153,0.088-0.272,0.212-0.357,0.37
			c-0.085,0.158-0.128,0.339-0.128,0.543s0.043,0.386,0.128,0.546s0.204,0.284,0.357,0.372s0.325,0.133,0.515,0.133
			c0.173,0,0.332-0.031,0.477-0.092s0.266-0.15,0.365-0.265l0.194,0.204c-0.119,0.143-0.269,0.253-0.449,0.332
			c-0.18,0.078-0.381,0.117-0.602,0.117c-0.255,0-0.483-0.057-0.684-0.171c-0.201-0.114-0.358-0.274-0.472-0.48
			s-0.171-0.438-0.171-0.696s0.057-0.491,0.171-0.696c0.114-0.206,0.271-0.366,0.472-0.48s0.429-0.171,0.684-0.171
			c0.207,0,0.397,0.034,0.569,0.102s0.319,0.163,0.441,0.286l-0.194,0.23C83.209,35.181,82.942,35.075,82.626,35.075z"/>
		<path fill="#FFFFFF" d="M85.947,37.457l-0.005-0.449c-0.106,0.156-0.243,0.273-0.413,0.349c-0.17,0.076-0.366,0.115-0.587,0.115
			c-0.18,0-0.339-0.035-0.477-0.105s-0.244-0.166-0.319-0.288c-0.075-0.122-0.112-0.26-0.112-0.413c0-0.231,0.089-0.413,0.268-0.546
			c0.178-0.133,0.424-0.199,0.737-0.199h0.898v-0.204c0-0.211-0.063-0.374-0.189-0.49s-0.309-0.173-0.551-0.173
			c-0.286,0-0.573,0.107-0.862,0.321l-0.153-0.235c0.18-0.126,0.352-0.218,0.515-0.278c0.163-0.059,0.35-0.089,0.561-0.089
			c0.323,0,0.573,0.081,0.75,0.242c0.177,0.162,0.267,0.385,0.27,0.671l0.005,1.77L85.947,37.457L85.947,37.457z M85.608,37.021
			c0.165-0.11,0.276-0.266,0.334-0.467v-0.367H85.08c-0.235,0-0.413,0.039-0.536,0.117c-0.122,0.078-0.184,0.196-0.184,0.352
			c0,0.16,0.059,0.288,0.176,0.385c0.117,0.097,0.273,0.145,0.467,0.145C85.241,37.187,85.443,37.132,85.608,37.021z"/>
		<path fill="#FFFFFF" d="M89.63,33.672v3.785h-0.342v-0.612c-0.102,0.201-0.245,0.356-0.429,0.467s-0.398,0.166-0.643,0.166
			c-0.252,0-0.476-0.058-0.673-0.173c-0.197-0.116-0.35-0.277-0.459-0.485c-0.109-0.207-0.163-0.442-0.163-0.704
			c0-0.262,0.055-0.495,0.166-0.699c0.11-0.204,0.264-0.364,0.459-0.479c0.195-0.116,0.417-0.174,0.666-0.174
			c0.245,0,0.46,0.056,0.645,0.168s0.329,0.269,0.431,0.469v-1.729H89.63z M88.799,37.047c0.153-0.09,0.273-0.215,0.36-0.375
			s0.13-0.342,0.13-0.546c0-0.204-0.043-0.387-0.13-0.548s-0.207-0.288-0.36-0.38c-0.153-0.092-0.326-0.138-0.52-0.138
			s-0.367,0.046-0.52,0.138s-0.274,0.219-0.362,0.38c-0.088,0.162-0.133,0.344-0.133,0.548s0.043,0.386,0.13,0.546
			s0.207,0.285,0.362,0.375s0.329,0.135,0.523,0.135C88.472,37.182,88.646,37.137,88.799,37.047z"/>
		<path fill="#FFFFFF" d="M92.421,34.945c0.204,0.114,0.364,0.273,0.479,0.477c0.116,0.204,0.174,0.435,0.174,0.694
			c0,0.262-0.058,0.496-0.174,0.701c-0.116,0.206-0.275,0.366-0.479,0.48c-0.204,0.114-0.435,0.171-0.694,0.171
			s-0.49-0.057-0.694-0.171c-0.204-0.114-0.364-0.274-0.479-0.48c-0.116-0.206-0.173-0.439-0.173-0.701
			c0-0.258,0.058-0.49,0.173-0.694c0.116-0.204,0.275-0.363,0.479-0.477c0.204-0.114,0.435-0.171,0.694-0.171
			S92.217,34.831,92.421,34.945z M91.207,35.203c-0.153,0.088-0.272,0.213-0.357,0.372c-0.085,0.16-0.128,0.342-0.128,0.546
			c0,0.208,0.043,0.391,0.128,0.551s0.204,0.284,0.357,0.372s0.326,0.133,0.52,0.133s0.367-0.044,0.52-0.133
			c0.153-0.088,0.272-0.213,0.357-0.372c0.085-0.16,0.128-0.343,0.128-0.551c0-0.204-0.043-0.386-0.128-0.546
			s-0.204-0.284-0.357-0.372s-0.326-0.133-0.52-0.133S91.36,35.114,91.207,35.203z"/>
		<path fill="#FFFFFF" d="M94.839,35.108c-0.126-0.036-0.25-0.054-0.372-0.054c-0.17,0-0.307,0.033-0.411,0.099
			c-0.104,0.067-0.156,0.167-0.156,0.3c0,0.092,0.028,0.167,0.084,0.224c0.056,0.058,0.126,0.105,0.209,0.14
			c0.083,0.036,0.2,0.076,0.349,0.12c0.184,0.054,0.333,0.108,0.449,0.161c0.116,0.053,0.214,0.129,0.296,0.23
			c0.082,0.1,0.122,0.232,0.122,0.395c0,0.241-0.092,0.426-0.275,0.554c-0.184,0.128-0.413,0.191-0.689,0.191
			c-0.194,0-0.381-0.032-0.561-0.097c-0.18-0.064-0.332-0.156-0.454-0.275l0.138-0.245c0.116,0.106,0.253,0.189,0.411,0.25
			c0.158,0.061,0.319,0.092,0.482,0.092c0.18,0,0.327-0.037,0.441-0.112s0.171-0.184,0.171-0.326c0-0.099-0.029-0.179-0.087-0.242
			s-0.13-0.112-0.217-0.148c-0.087-0.036-0.207-0.077-0.36-0.125c-0.18-0.054-0.326-0.107-0.439-0.158
			c-0.112-0.051-0.207-0.125-0.286-0.222c-0.078-0.097-0.117-0.224-0.117-0.38c0-0.235,0.087-0.411,0.263-0.531
			c0.175-0.119,0.394-0.179,0.655-0.179c0.153,0,0.301,0.02,0.444,0.061s0.27,0.097,0.383,0.168l-0.133,0.26
			C95.079,35.194,94.965,35.144,94.839,35.108z"/>
		<path fill="#FFFFFF" d="M53.598,43.312l-0.423-0.949h-1.979l-0.418,0.949H50.4l1.607-3.566h0.367l1.607,3.566
			C53.981,43.312,53.598,43.312,53.598,43.312z M51.333,42.046h1.704l-0.857-1.928L51.333,42.046z"/>
		<path fill="#FFFFFF" d="M55.228,40.794c0.165-0.107,0.363-0.162,0.594-0.166v0.321c-0.282-0.003-0.509,0.079-0.681,0.247
			c-0.172,0.168-0.27,0.397-0.293,0.686v1.428h-0.342v-2.673h0.342v0.622C54.937,41.057,55.063,40.901,55.228,40.794z"/>
		<path fill="#FFFFFF" d="M58.684,40.638v2.393c0,0.258-0.054,0.485-0.163,0.679c-0.109,0.194-0.265,0.343-0.467,0.446
			c-0.202,0.104-0.436,0.156-0.702,0.156c-0.395,0-0.76-0.136-1.097-0.408l0.163-0.245c0.136,0.119,0.279,0.209,0.429,0.27
			s0.313,0.092,0.49,0.092c0.306,0,0.55-0.089,0.732-0.268s0.273-0.418,0.273-0.717v-0.434c-0.095,0.187-0.231,0.333-0.408,0.439
			c-0.177,0.106-0.381,0.158-0.612,0.158c-0.238,0-0.45-0.055-0.635-0.166c-0.185-0.11-0.33-0.264-0.434-0.459
			c-0.104-0.195-0.156-0.417-0.156-0.666c0-0.248,0.052-0.469,0.156-0.663c0.104-0.194,0.249-0.345,0.436-0.454
			c0.187-0.109,0.4-0.163,0.638-0.163c0.231,0,0.434,0.052,0.607,0.156s0.309,0.251,0.408,0.441v-0.587
			C58.342,40.638,58.684,40.638,58.684,40.638z M57.878,42.794c0.146-0.087,0.26-0.207,0.342-0.36s0.122-0.325,0.122-0.515
			c0-0.194-0.041-0.367-0.122-0.52c-0.082-0.153-0.196-0.273-0.342-0.36s-0.311-0.13-0.495-0.13s-0.349,0.043-0.495,0.13
			s-0.261,0.207-0.344,0.36s-0.125,0.326-0.125,0.52s0.042,0.367,0.125,0.518s0.197,0.27,0.342,0.357
			c0.145,0.087,0.31,0.13,0.497,0.13C57.567,42.924,57.732,42.88,57.878,42.794z"/>
		<path fill="#FFFFFF" d="M61.603,41.023c0.218,0.264,0.318,0.618,0.301,1.064h-2.229c0.024,0.286,0.129,0.516,0.316,0.691
			c0.187,0.175,0.418,0.263,0.694,0.263c0.17,0,0.328-0.031,0.475-0.092c0.146-0.061,0.272-0.148,0.377-0.26l0.194,0.194
			c-0.129,0.139-0.285,0.247-0.467,0.324s-0.382,0.115-0.599,0.115c-0.259,0-0.488-0.057-0.689-0.171
			c-0.201-0.114-0.358-0.273-0.472-0.477c-0.114-0.204-0.171-0.437-0.171-0.699c0-0.258,0.057-0.491,0.171-0.696
			c0.114-0.206,0.271-0.366,0.472-0.48s0.427-0.171,0.679-0.171C61.069,40.628,61.385,40.76,61.603,41.023z M61.597,41.822
			c-0.017-0.279-0.11-0.501-0.278-0.666s-0.389-0.247-0.661-0.247c-0.269,0-0.493,0.083-0.673,0.25s-0.284,0.388-0.311,0.663
			C59.674,41.822,61.597,41.822,61.597,41.822z"/>
		<path fill="#FFFFFF" d="M64.768,40.906c0.182,0.185,0.273,0.44,0.273,0.763v1.643h-0.347V41.75c0-0.252-0.07-0.449-0.209-0.592
			c-0.14-0.143-0.333-0.214-0.582-0.214c-0.275,0.003-0.496,0.088-0.661,0.255s-0.259,0.391-0.283,0.673v1.439h-0.342v-2.673h0.342
			v0.622c0.092-0.207,0.227-0.364,0.406-0.469c0.178-0.105,0.395-0.16,0.65-0.163C64.335,40.628,64.586,40.721,64.768,40.906z"/>
		<path fill="#FFFFFF" d="M67.301,43.128c-0.184,0.126-0.381,0.192-0.592,0.199c-0.204,0-0.366-0.063-0.485-0.189
			s-0.178-0.315-0.178-0.566V40.98h-0.383l-0.005-0.265h0.388v-0.689h0.342v0.689l0.867-0.005v0.27h-0.867v1.536
			c0,0.33,0.122,0.495,0.367,0.495c0.136,0,0.284-0.048,0.444-0.143L67.301,43.128z"/>
		<path fill="#FFFFFF" d="M68.26,39.697c0.044,0.046,0.066,0.103,0.066,0.171s-0.023,0.126-0.069,0.173
			c-0.046,0.048-0.101,0.071-0.166,0.071c-0.068,0-0.125-0.024-0.171-0.071s-0.069-0.105-0.069-0.173s0.023-0.125,0.069-0.171
			s0.103-0.069,0.171-0.069C68.16,39.628,68.216,39.651,68.26,39.697z M67.918,40.638h0.342v2.673h-0.342V40.638z"/>
		<path fill="#FFFFFF" d="M71.405,40.906c0.182,0.185,0.273,0.44,0.273,0.763v1.643h-0.347V41.75c0-0.252-0.07-0.449-0.209-0.592
			c-0.14-0.143-0.333-0.214-0.582-0.214c-0.275,0.003-0.496,0.088-0.661,0.255s-0.259,0.391-0.283,0.673v1.439h-0.342v-2.673h0.342
			v0.622c0.092-0.207,0.227-0.364,0.406-0.469c0.178-0.105,0.395-0.16,0.65-0.163C70.972,40.628,71.223,40.721,71.405,40.906z"/>
		<path fill="#FFFFFF" d="M74.356,40.799c0.204,0.114,0.364,0.273,0.479,0.477c0.116,0.204,0.173,0.435,0.173,0.694
			c0,0.262-0.058,0.496-0.173,0.701c-0.116,0.206-0.275,0.366-0.479,0.48s-0.435,0.171-0.694,0.171c-0.258,0-0.49-0.057-0.694-0.171
			c-0.204-0.114-0.364-0.274-0.479-0.48c-0.116-0.206-0.174-0.439-0.174-0.701c0-0.258,0.058-0.49,0.174-0.694
			c0.116-0.204,0.275-0.363,0.479-0.477c0.204-0.114,0.435-0.171,0.694-0.171C73.921,40.628,74.152,40.685,74.356,40.799z
			 M73.142,41.057c-0.153,0.088-0.272,0.213-0.357,0.372c-0.085,0.16-0.128,0.342-0.128,0.546c0,0.208,0.043,0.391,0.128,0.551
			s0.204,0.284,0.357,0.372s0.326,0.133,0.52,0.133s0.367-0.044,0.52-0.133c0.153-0.088,0.272-0.213,0.357-0.372
			c0.085-0.16,0.128-0.343,0.128-0.551c0-0.204-0.043-0.386-0.128-0.546s-0.204-0.284-0.357-0.372s-0.326-0.133-0.52-0.133
			S73.295,40.968,73.142,41.057z"/>
		<path fill="#FFFFFF" d="M76.775,40.962c-0.126-0.036-0.25-0.054-0.372-0.054c-0.17,0-0.307,0.033-0.411,0.099
			c-0.104,0.066-0.156,0.166-0.156,0.299c0,0.092,0.028,0.167,0.084,0.224c0.056,0.058,0.126,0.105,0.209,0.14
			c0.083,0.036,0.2,0.076,0.349,0.12c0.184,0.054,0.333,0.108,0.449,0.161c0.116,0.053,0.214,0.129,0.296,0.23
			s0.122,0.232,0.122,0.395c0,0.241-0.092,0.426-0.275,0.554c-0.184,0.128-0.413,0.191-0.689,0.191
			c-0.194,0-0.381-0.032-0.561-0.097c-0.18-0.064-0.332-0.156-0.454-0.275l0.138-0.245c0.116,0.106,0.253,0.189,0.411,0.25
			c0.158,0.061,0.319,0.092,0.482,0.092c0.18,0,0.327-0.037,0.441-0.112s0.171-0.184,0.171-0.326c0-0.099-0.029-0.179-0.087-0.242
			s-0.13-0.112-0.217-0.148c-0.087-0.036-0.207-0.077-0.36-0.125c-0.18-0.054-0.326-0.107-0.439-0.158
			c-0.112-0.051-0.207-0.125-0.286-0.222c-0.078-0.097-0.117-0.224-0.117-0.38c0-0.235,0.087-0.411,0.263-0.531
			c0.175-0.119,0.394-0.179,0.655-0.179c0.153,0,0.301,0.02,0.444,0.061s0.27,0.097,0.383,0.168l-0.133,0.26
			C77.014,41.048,76.9,40.998,76.775,40.962z"/>
	</g>
</g>
</svg>
