<?xml version="1.0" encoding="utf-8"?>
<!-- Generator: Adobe Illustrator 17.0.0, SVG Export Plug-In . SVG Version: 6.00 Build 0)  -->
<!DOCTYPE svg PUBLIC "-//W3C//DTD SVG 1.1//EN" "http://www.w3.org/Graphics/SVG/1.1/DTD/svg11.dtd">
<svg version="1.1" id="Layer_1" xmlns="http://www.w3.org/2000/svg" xmlns:xlink="http://www.w3.org/1999/xlink" x="0px" y="0px"
	 width="116.833px" height="49.083px" viewBox="0 0 116.833 49.083" enable-background="new 0 0 116.833 49.083"
	 xml:space="preserve">
<g>
	<g>
		<g>
			<path fill="#00B6B8" d="M19.218,10.526l-0.732-6.034c-0.812,0.094-1.919,0.33-2.724,0.58l1.788,5.807
				C18.088,10.715,18.648,10.597,19.218,10.526z"/>
			<path fill="#00B6B8" d="M5.646,14.183c-0.325,0.751-0.674,1.828-0.86,2.649l5.924,1.355c0.129-0.555,0.306-1.101,0.526-1.622
				L5.646,14.183z"/>
			<path fill="#00B6B8" d="M9.484,32.218l4.136-4.454c-0.419-0.392-0.803-0.817-1.143-1.265l-4.858,3.65
				C8.106,30.804,8.864,31.645,9.484,32.218z"/>
			<path fill="#00B6B8" d="M21.7,30.387l0.732,6.035c0.813-0.094,1.92-0.33,2.724-0.58l-1.788-5.807
				C22.83,30.198,22.27,30.316,21.7,30.387z"/>
			<path fill="#00B6B8" d="M35.272,26.73c0.325-0.751,0.674-1.828,0.86-2.649l-5.923-1.355c-0.129,0.556-0.307,1.101-0.527,1.622
				L35.272,26.73z"/>
			<path fill="#00B6B8" d="M31.435,8.696l-4.136,4.454c0.419,0.392,0.803,0.817,1.143,1.265l4.858-3.649
				C32.81,10.108,32.053,9.267,31.435,8.696z"/>
		</g>
		<g>
			<path fill="#00BABA" d="M19.218,10.526l-0.732-6.034c-0.812,0.094-1.919,0.33-2.724,0.58l1.788,5.807
				C18.088,10.715,18.648,10.597,19.218,10.526z"/>
			<path fill="#00BABA" d="M5.646,14.183c-0.325,0.751-0.674,1.828-0.86,2.649l5.924,1.355c0.129-0.555,0.306-1.101,0.526-1.622
				L5.646,14.183z"/>
			<path fill="#00BABA" d="M9.484,32.218l4.136-4.454c-0.419-0.392-0.803-0.817-1.143-1.265l-4.858,3.65
				C8.106,30.804,8.864,31.645,9.484,32.218z"/>
			<path fill="#00BABA" d="M21.7,30.387l0.732,6.035c0.813-0.094,1.92-0.33,2.724-0.58l-1.788-5.807
				C22.83,30.198,22.27,30.316,21.7,30.387z"/>
			<path fill="#00BABA" d="M35.272,26.73c0.325-0.751,0.674-1.828,0.86-2.649l-5.923-1.355c-0.129,0.556-0.307,1.101-0.527,1.622
				L35.272,26.73z"/>
			<path fill="#00BABA" d="M31.435,8.696l-4.136,4.454c0.419,0.392,0.803,0.817,1.143,1.265l4.858-3.649
				C32.81,10.108,32.053,9.267,31.435,8.696z"/>
		</g>
	</g>
	<g>
		<g>
			<path fill="#8DD906" d="M12.477,14.419c0.346-0.457,0.729-0.884,1.139-1.268l-1.666-1.792L8.74,7.947
				c-0.716,0.671-1.376,1.404-1.964,2.182l1.135,0.863L12.477,14.419z"/>
			<path fill="#8DD906" d="M4.671,27.144l1.342-0.563l5.222-2.229c-0.217-0.516-0.393-1.061-0.524-1.623l-2.389,0.548l-4.561,1.075
				C3.982,25.303,4.288,26.242,4.671,27.144z"/>
			<path fill="#8DD906" d="M17.553,30.038l-0.739,2.404l-1.33,4.423c0.934,0.283,1.9,0.486,2.873,0.605l0.188-1.481l0.676-5.6
				C18.65,30.319,18.089,30.201,17.553,30.038z"/>
			<path fill="#8DD906" d="M28.441,26.495c-0.346,0.457-0.728,0.883-1.139,1.268l1.698,1.827l3.178,3.376
				c0.715-0.67,1.376-1.404,1.964-2.182L32.979,29.9L28.441,26.495z"/>
			<path fill="#8DD906" d="M36.248,13.769l-1.341,0.563l-5.223,2.229c0.218,0.516,0.394,1.062,0.524,1.623l2.461-0.564l4.49-1.059
				C36.936,15.61,36.63,14.671,36.248,13.769z"/>
			<path fill="#8DD906" d="M23.366,10.875l0.728-2.369l1.341-4.459c-0.934-0.283-1.9-0.486-2.873-0.605l-0.18,1.412l-0.684,5.669
				C22.268,10.594,22.829,10.712,23.366,10.875z"/>
		</g>
		<g>
			<path fill="#8DD906" d="M12.477,14.419c0.346-0.457,0.729-0.884,1.139-1.268l-1.666-1.792L8.74,7.947
				c-0.716,0.671-1.376,1.404-1.964,2.182l1.135,0.863L12.477,14.419z"/>
			<path fill="#8DD906" d="M4.671,27.144l1.342-0.563l5.222-2.229c-0.217-0.516-0.393-1.061-0.524-1.623l-2.389,0.548l-4.561,1.075
				C3.982,25.303,4.288,26.242,4.671,27.144z"/>
			<path fill="#8DD906" d="M17.553,30.038l-0.739,2.404l-1.33,4.423c0.934,0.283,1.9,0.486,2.873,0.605l0.188-1.481l0.676-5.6
				C18.65,30.319,18.089,30.201,17.553,30.038z"/>
			<path fill="#8DD906" d="M28.441,26.495c-0.346,0.457-0.728,0.883-1.139,1.268l1.698,1.827l3.178,3.376
				c0.715-0.67,1.376-1.404,1.964-2.182L32.979,29.9L28.441,26.495z"/>
			<path fill="#8DD906" d="M36.248,13.769l-1.341,0.563l-5.223,2.229c0.218,0.516,0.394,1.062,0.524,1.623l2.461-0.564l4.49-1.059
				C36.936,15.61,36.63,14.671,36.248,13.769z"/>
			<path fill="#8DD906" d="M23.366,10.875l0.728-2.369l1.341-4.459c-0.934-0.283-1.9-0.486-2.873-0.605l-0.18,1.412l-0.684,5.669
				C22.268,10.594,22.829,10.712,23.366,10.875z"/>
		</g>
	</g>
	<g>
		<path fill="#0183D9" d="M14.337,2.704c-1.027,0.353-2.03,0.8-2.981,1.327l3.204,5.754c0.607-0.337,1.246-0.624,1.911-0.855
			L14.337,2.704z"/>
		<path fill="#0183D9" d="M2.022,16.882c-0.205,1.062-0.318,2.154-0.336,3.246l6.607,0.102c0.012-0.709,0.084-1.403,0.213-2.078
			L2.022,16.882z"/>
		<path fill="#0183D9" d="M8.149,34.631c0.824,0.715,1.711,1.361,2.639,1.919l3.396-5.677c-0.598-0.361-1.163-0.772-1.688-1.227
			L8.149,34.631z"/>
		<path fill="#0183D9" d="M26.582,38.209c1.027-0.353,2.03-0.8,2.981-1.328l-3.22-5.781c-0.606,0.336-1.243,0.621-1.906,0.85
			L26.582,38.209z"/>
		<path fill="#0183D9" d="M38.896,24.031c0.205-1.062,0.319-2.154,0.336-3.246l-6.608-0.102c-0.014,0.709-0.089,1.403-0.219,2.077
			L38.896,24.031z"/>
		<path fill="#0183D9" d="M32.769,6.282c-0.824-0.715-1.711-1.361-2.639-1.919l-3.38,5.65c0.599,0.363,1.164,0.776,1.69,1.234
			L32.769,6.282z"/>
	</g>
	<g>
		<g>
			<path fill="#00A8F2" d="M10.78,4.365c-0.932,0.561-1.819,1.207-2.638,1.92l4.333,4.964c0.525-0.458,1.091-0.871,1.689-1.234
				L10.78,4.365z"/>
			<path fill="#00A8F2" d="M1.687,20.794c0.01,0.551,0.044,1.098,0.099,1.626c0.056,0.53,0.137,1.074,0.242,1.619l6.485-1.274
				c-0.13-0.674-0.205-1.368-0.219-2.077L1.687,20.794z"/>
			<path fill="#00A8F2" d="M11.364,36.883c0.95,0.527,1.952,0.974,2.981,1.329l2.141-6.26c-0.663-0.229-1.301-0.514-1.907-0.85
				L11.364,36.883z"/>
			<path fill="#00A8F2" d="M30.139,36.548c0.932-0.561,1.819-1.207,2.639-1.921l-4.351-4.985c-0.525,0.456-1.09,0.867-1.688,1.228
				L30.139,36.548z"/>
			<path fill="#00A8F2" d="M39.231,20.12c-0.01-0.551-0.044-1.098-0.099-1.626c-0.056-0.53-0.137-1.074-0.242-1.619l-6.478,1.273
				c0.128,0.675,0.201,1.369,0.213,2.078L39.231,20.12z"/>
			<path fill="#00A8F2" d="M26.406,9.691l3.149-5.661c-0.95-0.527-1.953-0.974-2.981-1.329l-2.13,6.228
				c0.665,0.23,1.304,0.517,1.911,0.854L26.406,9.691z"/>
		</g>
		<g>
			<path fill="#00A1DF" d="M10.78,4.365c-0.932,0.561-1.819,1.207-2.638,1.92l4.333,4.964c0.525-0.458,1.091-0.871,1.689-1.234
				L10.78,4.365z"/>
			<path fill="#00A1DF" d="M1.687,20.794c0.01,0.551,0.044,1.098,0.099,1.626c0.056,0.53,0.137,1.074,0.242,1.619l6.485-1.274
				c-0.13-0.674-0.205-1.368-0.219-2.077L1.687,20.794z"/>
			<path fill="#00A1DF" d="M11.364,36.883c0.95,0.527,1.952,0.974,2.981,1.329l2.141-6.26c-0.663-0.229-1.301-0.514-1.907-0.85
				L11.364,36.883z"/>
			<path fill="#00A1DF" d="M30.139,36.548c0.932-0.561,1.819-1.207,2.639-1.921l-4.351-4.985c-0.525,0.456-1.09,0.867-1.688,1.228
				L30.139,36.548z"/>
			<path fill="#00A1DF" d="M39.231,20.12c-0.01-0.551-0.044-1.098-0.099-1.626c-0.056-0.53-0.137-1.074-0.242-1.619l-6.478,1.273
				c0.128,0.675,0.201,1.369,0.213,2.078L39.231,20.12z"/>
			<path fill="#00A1DF" d="M26.406,9.691l3.149-5.661c-0.95-0.527-1.953-0.974-2.981-1.329l-2.13,6.228
				c0.665,0.23,1.304,0.517,1.911,0.854L26.406,9.691z"/>
		</g>
	</g>
	<g>
		<path fill="#00C000" d="M5.075,9.696c-0.623,0.89-1.173,1.84-1.633,2.825l5.985,2.776c0.296-0.636,0.646-1.242,1.043-1.812
			L5.075,9.696z"/>
		<path fill="#00C000" d="M3.443,28.402c0.458,0.981,1.008,1.931,1.635,2.825l5.412-3.806c-0.398-0.568-0.749-1.172-1.046-1.806
			L3.443,28.402z"/>
		<path fill="#00C000" d="M35.844,31.218c0.623-0.89,1.173-1.84,1.633-2.825l-5.999-2.783c-0.298,0.634-0.648,1.238-1.046,1.807
			L35.844,31.218z"/>
		<path fill="#00C000" d="M37.476,12.512c-0.458-0.981-1.008-1.931-1.635-2.825l-5.395,3.794c0.397,0.57,0.747,1.176,1.044,1.812
			L37.476,12.512z"/>
		<path fill="#00C000" d="M21.504,8.305l0.583-6.556c-0.53-0.045-1.069-0.069-1.602-0.069c-0.551,0-1.109,0.025-1.661,0.073
			l0.586,6.551c0.346-0.03,0.696-0.046,1.049-0.046C20.811,8.26,21.159,8.276,21.504,8.305z"/>
		<path fill="#00C000" d="M19.418,32.572l-0.586,6.589c0.552,0.048,1.102,0.072,1.637,0.072c0.532,0,1.079-0.024,1.628-0.071
			l-0.591-6.59c-0.345,0.029-0.694,0.045-1.046,0.045C20.108,32.617,19.761,32.601,19.418,32.572z"/>
	</g>
</g>
<g>
	<g>
		<path fill="#1C426E" d="M59.7,19.949c1.561,0.459,2.916,1.744,2.916,3.878c0,2.48-1.768,4.683-5.762,4.683h-6.909V12.443h6.932
			c2.892,0,4.888,1.952,4.888,4.178c0,1.79-1.193,2.914-2.066,3.236V19.949z M56.142,18.801c1.055,0,1.744-0.643,1.744-1.584
			c0-0.895-0.665-1.584-1.767-1.584h-2.319v3.168H56.142z M56.509,25.319c1.331,0,2.043-0.757,2.043-1.836
			c0-1.147-0.781-1.837-2.043-1.837h-2.709v3.673H56.509z"/>
		<path fill="#1C426E" d="M72.344,28.509h-3.856v-6.334l-5.991-9.733h4.453l2.478,4.361c0.574,1.011,1.056,1.883,1.079,1.905h0.069
			c0.023-0.023,0.505-0.918,1.079-1.905l2.57-4.361h4.109l-5.99,9.733V28.509z"/>
		<path fill="#1C426E" d="M92.217,24.584c0-3.81,0.046-5.692,0.046-5.715h-0.046c-0.022,0.023-0.804,1.469-1.583,2.845l-1.562,2.823
			h-2.157l-1.561-2.776c-0.803-1.424-1.561-2.87-1.583-2.893h-0.069c0,0.023,0.046,1.905,0.046,5.715v3.924h-3.856V12.443h4.085
			l4.04,7.184h0.069l4.062-7.184h3.925v16.066h-3.856V24.584z"/>
		<path fill="#1C426E" d="M102.679,25.847l-0.964,2.662h-4.063l6.198-16.067h4.383l6.221,16.067h-4.132l-0.965-2.662H102.679z
			 M106.948,19.145c-0.504-1.332-0.872-2.341-0.895-2.365h-0.069c-0.023,0.024-0.39,1.011-0.895,2.342l-1.147,3.213h4.153
			L106.948,19.145z"/>
	</g>
	<g>
		<path fill="#1C426E" d="M53.565,33.25c0.293,0.229,0.439,0.546,0.439,0.949c0,0.305-0.085,0.561-0.255,0.768
			c-0.17,0.207-0.407,0.342-0.713,0.406c0.379,0.049,0.675,0.19,0.886,0.421c0.212,0.231,0.318,0.524,0.318,0.879
			c0,0.443-0.165,0.788-0.495,1.034c-0.33,0.246-0.788,0.369-1.374,0.369h-2.186v-5.17h2.164
			C52.867,32.906,53.272,33.021,53.565,33.25z M53.177,34.948c0.202-0.16,0.303-0.388,0.303-0.683c0-0.286-0.101-0.507-0.303-0.665
			c-0.202-0.157-0.485-0.234-0.849-0.229h-1.632v1.817h1.632C52.692,35.188,52.975,35.108,53.177,34.948z M53.358,37.356
			c0.244-0.175,0.366-0.42,0.366-0.735c0-0.31-0.123-0.551-0.369-0.724c-0.246-0.172-0.588-0.258-1.027-0.258h-1.632v1.979h1.632
			C52.771,37.618,53.114,37.531,53.358,37.356z"/>
		<path fill="#1C426E" d="M57.963,34.439c0.295,0.165,0.527,0.395,0.694,0.691c0.167,0.295,0.251,0.63,0.251,1.005
			c0,0.379-0.084,0.718-0.251,1.015c-0.167,0.298-0.399,0.529-0.694,0.694c-0.295,0.165-0.63,0.247-1.005,0.247
			c-0.374,0-0.709-0.082-1.004-0.247c-0.295-0.165-0.527-0.396-0.694-0.694c-0.168-0.298-0.251-0.636-0.251-1.015
			c0-0.374,0.084-0.709,0.251-1.005c0.167-0.295,0.399-0.526,0.694-0.691c0.295-0.165,0.63-0.247,1.004-0.247
			C57.333,34.191,57.668,34.274,57.963,34.439z M56.205,34.812c-0.222,0.128-0.394,0.308-0.517,0.539
			c-0.123,0.231-0.185,0.495-0.185,0.79c0,0.3,0.062,0.566,0.185,0.798c0.123,0.232,0.295,0.411,0.517,0.539
			c0.222,0.128,0.473,0.192,0.753,0.192c0.281,0,0.532-0.064,0.753-0.192c0.222-0.128,0.394-0.308,0.517-0.539
			c0.123-0.231,0.185-0.497,0.185-0.798c0-0.295-0.062-0.559-0.185-0.79c-0.123-0.231-0.295-0.411-0.517-0.539
			c-0.222-0.128-0.473-0.192-0.753-0.192C56.678,34.62,56.427,34.684,56.205,34.812z"/>
		<path fill="#1C426E" d="M59.994,32.596h0.495v5.48h-0.495V32.596z"/>
		<path fill="#1C426E" d="M63.48,34.675c-0.182-0.052-0.362-0.078-0.539-0.078c-0.246,0-0.444,0.048-0.594,0.144
			c-0.15,0.096-0.225,0.24-0.225,0.432c0,0.133,0.041,0.241,0.122,0.325c0.081,0.084,0.182,0.151,0.303,0.203
			c0.121,0.052,0.289,0.11,0.506,0.173c0.266,0.079,0.483,0.156,0.65,0.233c0.167,0.076,0.31,0.187,0.428,0.332
			c0.118,0.145,0.177,0.336,0.177,0.572c0,0.35-0.133,0.617-0.399,0.801c-0.266,0.185-0.598,0.277-0.997,0.277
			c-0.281,0-0.551-0.047-0.812-0.14c-0.261-0.093-0.48-0.226-0.657-0.399l0.2-0.355c0.167,0.153,0.366,0.273,0.594,0.362
			c0.229,0.089,0.462,0.133,0.698,0.133c0.261,0,0.474-0.054,0.639-0.162c0.165-0.108,0.247-0.266,0.247-0.473
			c0-0.143-0.042-0.26-0.126-0.351c-0.084-0.091-0.188-0.162-0.314-0.214c-0.126-0.052-0.299-0.112-0.521-0.181
			c-0.261-0.079-0.473-0.155-0.635-0.229c-0.162-0.074-0.3-0.181-0.413-0.321c-0.113-0.14-0.17-0.324-0.17-0.55
			c0-0.34,0.127-0.596,0.38-0.768c0.254-0.172,0.57-0.259,0.949-0.259c0.222,0,0.436,0.029,0.643,0.089
			c0.207,0.059,0.391,0.14,0.554,0.244l-0.192,0.377C63.827,34.799,63.662,34.727,63.48,34.675z"/>
		<path fill="#1C426E" d="M67.719,38.076l-0.007-0.65c-0.153,0.227-0.352,0.395-0.598,0.506c-0.246,0.111-0.529,0.166-0.849,0.166
			c-0.261,0-0.491-0.05-0.691-0.151c-0.199-0.101-0.353-0.24-0.461-0.417c-0.108-0.177-0.162-0.377-0.162-0.598
			c0-0.335,0.129-0.598,0.388-0.79c0.258-0.192,0.614-0.288,1.067-0.288h1.3v-0.295c0-0.305-0.091-0.542-0.273-0.709
			c-0.182-0.167-0.448-0.251-0.798-0.251c-0.414,0-0.83,0.155-1.248,0.465l-0.221-0.34c0.261-0.182,0.51-0.316,0.746-0.403
			c0.236-0.086,0.507-0.129,0.812-0.129c0.468,0,0.83,0.117,1.086,0.351c0.256,0.234,0.386,0.558,0.391,0.971l0.007,2.563H67.719z
			 M67.228,37.445c0.239-0.16,0.4-0.385,0.484-0.676v-0.532h-1.248c-0.34,0-0.598,0.057-0.776,0.17
			c-0.177,0.113-0.266,0.283-0.266,0.51c0,0.232,0.085,0.417,0.255,0.558c0.17,0.14,0.395,0.21,0.676,0.21
			C66.697,37.685,66.989,37.605,67.228,37.445z"/>
		<path fill="#1C426E" d="M71.035,34.675c-0.182-0.052-0.362-0.078-0.539-0.078c-0.246,0-0.444,0.048-0.594,0.144
			c-0.15,0.096-0.225,0.24-0.225,0.432c0,0.133,0.041,0.241,0.122,0.325c0.081,0.084,0.182,0.151,0.303,0.203
			c0.121,0.052,0.289,0.11,0.506,0.173c0.266,0.079,0.483,0.156,0.65,0.233c0.167,0.076,0.31,0.187,0.428,0.332
			c0.118,0.145,0.177,0.336,0.177,0.572c0,0.35-0.133,0.617-0.399,0.801c-0.266,0.185-0.598,0.277-0.997,0.277
			c-0.281,0-0.551-0.047-0.812-0.14c-0.261-0.093-0.48-0.226-0.657-0.399l0.2-0.355c0.167,0.153,0.366,0.273,0.594,0.362
			c0.229,0.089,0.462,0.133,0.698,0.133c0.261,0,0.474-0.054,0.639-0.162c0.165-0.108,0.247-0.266,0.247-0.473
			c0-0.143-0.042-0.26-0.126-0.351c-0.084-0.091-0.188-0.162-0.314-0.214c-0.126-0.052-0.299-0.112-0.521-0.181
			c-0.261-0.079-0.473-0.155-0.635-0.229c-0.162-0.074-0.3-0.181-0.413-0.321c-0.113-0.14-0.17-0.324-0.17-0.55
			c0-0.34,0.127-0.596,0.38-0.768c0.254-0.172,0.57-0.259,0.949-0.259c0.222,0,0.436,0.029,0.643,0.089
			c0.207,0.059,0.391,0.14,0.554,0.244l-0.192,0.377C71.382,34.799,71.217,34.727,71.035,34.675z"/>
		<path fill="#1C426E" d="M75.559,39.302c-0.195,0.153-0.417,0.229-0.668,0.229c-0.3,0-0.566-0.089-0.798-0.266l0.221-0.384
			c0.172,0.118,0.357,0.177,0.554,0.177c0.157,0,0.3-0.052,0.428-0.155c0.128-0.103,0.234-0.254,0.318-0.451l0.162-0.399
			l-1.603-3.848h0.524l1.329,3.323l1.278-3.323h0.51l-1.787,4.424C75.91,38.925,75.753,39.149,75.559,39.302z"/>
		<path fill="#1C426E" d="M80.644,32.906h0.635l2.024,3.877l2.001-3.877h0.635v5.17h-0.473l-0.007-4.461l-2.024,3.907h-0.281
			l-2.031-3.907v4.461h-0.48V32.906z"/>
		<path fill="#1C426E" d="M90.356,34.764c0.315,0.382,0.46,0.895,0.436,1.54h-3.228c0.035,0.414,0.187,0.747,0.458,1.001
			c0.271,0.254,0.606,0.38,1.005,0.38c0.246,0,0.475-0.044,0.687-0.133c0.212-0.089,0.394-0.214,0.546-0.377l0.281,0.281
			c-0.187,0.202-0.412,0.358-0.676,0.469c-0.263,0.111-0.553,0.166-0.868,0.166c-0.374,0-0.707-0.082-0.997-0.247
			c-0.291-0.165-0.518-0.395-0.683-0.691c-0.165-0.295-0.247-0.633-0.247-1.012c0-0.374,0.082-0.71,0.247-1.008
			c0.165-0.298,0.393-0.529,0.683-0.694c0.291-0.165,0.618-0.247,0.982-0.247C89.582,34.191,90.04,34.382,90.356,34.764z
			 M90.348,35.92c-0.025-0.404-0.159-0.725-0.402-0.964c-0.244-0.239-0.563-0.358-0.956-0.358c-0.389,0-0.714,0.121-0.975,0.362
			c-0.261,0.241-0.411,0.561-0.451,0.96H90.348z"/>
		<path fill="#1C426E" d="M92.87,34.431c0.239-0.155,0.526-0.235,0.861-0.24v0.465c-0.409-0.005-0.738,0.114-0.986,0.358
			c-0.249,0.244-0.39,0.575-0.425,0.993v2.068h-0.495v-3.87h0.495v0.901C92.448,34.812,92.631,34.586,92.87,34.431z"/>
		<path fill="#1C426E" d="M96.064,34.627c-0.276,0-0.524,0.064-0.746,0.192c-0.221,0.128-0.394,0.307-0.517,0.535
			c-0.123,0.229-0.185,0.491-0.185,0.787s0.062,0.559,0.185,0.79c0.123,0.232,0.295,0.411,0.517,0.539
			c0.222,0.128,0.47,0.192,0.746,0.192c0.251,0,0.481-0.044,0.691-0.133c0.209-0.089,0.385-0.217,0.528-0.384l0.281,0.295
			c-0.172,0.207-0.389,0.367-0.65,0.48c-0.261,0.113-0.551,0.17-0.872,0.17c-0.369,0-0.699-0.082-0.99-0.247
			c-0.291-0.165-0.518-0.396-0.683-0.694c-0.165-0.298-0.247-0.634-0.247-1.008c0-0.374,0.082-0.71,0.247-1.008
			c0.165-0.298,0.393-0.529,0.683-0.694c0.291-0.165,0.62-0.247,0.99-0.247c0.3,0,0.575,0.049,0.824,0.148
			c0.248,0.099,0.461,0.236,0.639,0.414l-0.281,0.332C96.909,34.78,96.522,34.627,96.064,34.627z"/>
		<path fill="#1C426E" d="M100.872,38.076l-0.007-0.65c-0.153,0.227-0.352,0.395-0.598,0.506c-0.246,0.111-0.529,0.166-0.849,0.166
			c-0.261,0-0.491-0.05-0.691-0.151c-0.199-0.101-0.353-0.24-0.461-0.417c-0.108-0.177-0.162-0.377-0.162-0.598
			c0-0.335,0.129-0.598,0.388-0.79c0.258-0.192,0.614-0.288,1.067-0.288h1.3v-0.295c0-0.305-0.091-0.542-0.273-0.709
			c-0.182-0.167-0.448-0.251-0.798-0.251c-0.414,0-0.83,0.155-1.248,0.465l-0.221-0.34c0.261-0.182,0.51-0.316,0.746-0.403
			c0.236-0.086,0.507-0.129,0.812-0.129c0.468,0,0.83,0.117,1.086,0.351c0.256,0.234,0.386,0.558,0.391,0.971l0.007,2.563H100.872z
			 M100.381,37.445c0.239-0.16,0.4-0.385,0.484-0.676v-0.532h-1.248c-0.34,0-0.598,0.057-0.776,0.17
			c-0.177,0.113-0.266,0.283-0.266,0.51c0,0.232,0.085,0.417,0.255,0.558c0.17,0.14,0.395,0.21,0.676,0.21
			C99.851,37.685,100.142,37.605,100.381,37.445z"/>
		<path fill="#1C426E" d="M106.205,32.596v5.48h-0.495V37.19c-0.148,0.291-0.354,0.516-0.62,0.676
			c-0.266,0.16-0.576,0.24-0.931,0.24c-0.365,0-0.689-0.084-0.975-0.251c-0.286-0.167-0.507-0.401-0.665-0.702
			c-0.158-0.3-0.236-0.64-0.236-1.019c0-0.379,0.08-0.716,0.24-1.012c0.16-0.295,0.382-0.527,0.665-0.694
			c0.283-0.167,0.604-0.251,0.964-0.251c0.354,0,0.666,0.081,0.934,0.244c0.268,0.162,0.476,0.389,0.624,0.679v-2.504H106.205z
			 M105.001,37.482c0.222-0.13,0.395-0.311,0.521-0.543c0.126-0.231,0.188-0.495,0.188-0.79c0-0.295-0.063-0.56-0.188-0.794
			c-0.126-0.234-0.299-0.417-0.521-0.55c-0.221-0.133-0.473-0.199-0.753-0.199c-0.281,0-0.532,0.066-0.753,0.199
			c-0.221,0.133-0.396,0.316-0.524,0.55c-0.128,0.234-0.192,0.499-0.192,0.794c0,0.295,0.063,0.559,0.188,0.79
			c0.126,0.232,0.3,0.413,0.524,0.543c0.224,0.13,0.476,0.196,0.757,0.196C104.528,37.677,104.779,37.612,105.001,37.482z"/>
		<path fill="#1C426E" d="M110.245,34.439c0.295,0.165,0.527,0.395,0.694,0.691c0.168,0.295,0.251,0.63,0.251,1.005
			c0,0.379-0.084,0.718-0.251,1.015c-0.167,0.298-0.399,0.529-0.694,0.694c-0.295,0.165-0.63,0.247-1.004,0.247
			c-0.374,0-0.709-0.082-1.005-0.247c-0.295-0.165-0.527-0.396-0.694-0.694c-0.168-0.298-0.251-0.636-0.251-1.015
			c0-0.374,0.084-0.709,0.251-1.005c0.167-0.295,0.399-0.526,0.694-0.691c0.295-0.165,0.63-0.247,1.005-0.247
			C109.614,34.191,109.949,34.274,110.245,34.439z M108.487,34.812c-0.221,0.128-0.394,0.308-0.517,0.539
			c-0.123,0.231-0.185,0.495-0.185,0.79c0,0.3,0.062,0.566,0.185,0.798c0.123,0.232,0.295,0.411,0.517,0.539
			c0.222,0.128,0.473,0.192,0.753,0.192c0.281,0,0.532-0.064,0.753-0.192c0.222-0.128,0.394-0.308,0.517-0.539
			c0.123-0.231,0.185-0.497,0.185-0.798c0-0.295-0.062-0.559-0.185-0.79c-0.123-0.231-0.295-0.411-0.517-0.539
			c-0.221-0.128-0.473-0.192-0.753-0.192C108.959,34.62,108.708,34.684,108.487,34.812z"/>
		<path fill="#1C426E" d="M113.745,34.675c-0.182-0.052-0.362-0.078-0.539-0.078c-0.246,0-0.444,0.048-0.594,0.144
			c-0.15,0.096-0.225,0.24-0.225,0.432c0,0.133,0.041,0.241,0.122,0.325c0.081,0.084,0.182,0.151,0.303,0.203
			c0.121,0.052,0.289,0.11,0.506,0.173c0.266,0.079,0.483,0.156,0.65,0.233c0.167,0.076,0.31,0.187,0.428,0.332
			s0.177,0.336,0.177,0.572c0,0.35-0.133,0.617-0.399,0.801c-0.266,0.185-0.598,0.277-0.997,0.277c-0.281,0-0.551-0.047-0.812-0.14
			c-0.261-0.093-0.48-0.226-0.657-0.399l0.2-0.355c0.167,0.153,0.366,0.273,0.594,0.362c0.229,0.089,0.462,0.133,0.698,0.133
			c0.261,0,0.474-0.054,0.639-0.162c0.165-0.108,0.247-0.266,0.247-0.473c0-0.143-0.042-0.26-0.126-0.351
			c-0.084-0.091-0.188-0.162-0.314-0.214c-0.126-0.052-0.299-0.112-0.521-0.181c-0.261-0.079-0.473-0.155-0.635-0.229
			c-0.162-0.074-0.3-0.181-0.413-0.321c-0.113-0.14-0.17-0.324-0.17-0.55c0-0.34,0.127-0.596,0.38-0.768
			c0.254-0.172,0.57-0.259,0.949-0.259c0.222,0,0.436,0.029,0.643,0.089c0.207,0.059,0.391,0.14,0.554,0.244l-0.192,0.377
			C114.092,34.799,113.927,34.727,113.745,34.675z"/>
		<path fill="#1C426E" d="M54.041,46.551l-0.613-1.374h-2.866l-0.606,1.374H49.41l2.327-5.162h0.532l2.326,5.162H54.041z
			 M50.762,44.719h2.467l-1.241-2.792L50.762,44.719z"/>
		<path fill="#1C426E" d="M56.401,42.906c0.239-0.155,0.525-0.235,0.86-0.24v0.465c-0.409-0.005-0.737,0.114-0.986,0.358
			c-0.249,0.244-0.39,0.575-0.425,0.993v2.068h-0.495v-3.87h0.495v0.901C55.979,43.287,56.162,43.061,56.401,42.906z"/>
		<path fill="#1C426E" d="M61.405,42.681v3.464c0,0.374-0.079,0.702-0.236,0.982c-0.158,0.281-0.383,0.496-0.676,0.646
			c-0.293,0.15-0.632,0.225-1.016,0.225c-0.571,0-1.1-0.197-1.588-0.591l0.236-0.355c0.197,0.172,0.404,0.303,0.62,0.392
			c0.217,0.089,0.453,0.133,0.709,0.133c0.443,0,0.796-0.129,1.06-0.388c0.263-0.259,0.395-0.605,0.395-1.038v-0.628
			c-0.138,0.271-0.335,0.483-0.591,0.635c-0.256,0.153-0.551,0.229-0.886,0.229c-0.345,0-0.651-0.08-0.919-0.24
			c-0.268-0.16-0.478-0.382-0.628-0.665c-0.15-0.283-0.225-0.604-0.225-0.964c0-0.359,0.075-0.679,0.225-0.96
			c0.15-0.281,0.361-0.5,0.632-0.657c0.271-0.158,0.578-0.236,0.923-0.236c0.335,0,0.628,0.075,0.879,0.225
			c0.251,0.15,0.448,0.363,0.591,0.639v-0.849H61.405z M60.238,45.801c0.212-0.126,0.377-0.299,0.495-0.521
			c0.118-0.222,0.177-0.47,0.177-0.746c0-0.281-0.059-0.532-0.177-0.753c-0.118-0.222-0.283-0.395-0.495-0.521
			c-0.212-0.126-0.451-0.188-0.716-0.188c-0.266,0-0.505,0.063-0.716,0.188c-0.212,0.125-0.378,0.299-0.499,0.521
			c-0.121,0.221-0.181,0.473-0.181,0.753c0,0.28,0.06,0.531,0.181,0.75c0.121,0.219,0.286,0.392,0.495,0.517
			c0.209,0.125,0.449,0.188,0.72,0.188C59.787,45.99,60.026,45.927,60.238,45.801z"/>
		<path fill="#1C426E" d="M65.629,43.239c0.315,0.382,0.46,0.895,0.436,1.54h-3.228c0.035,0.414,0.187,0.747,0.458,1.001
			c0.271,0.254,0.606,0.38,1.004,0.38c0.246,0,0.475-0.044,0.687-0.133c0.212-0.089,0.394-0.214,0.546-0.377l0.281,0.281
			c-0.187,0.202-0.412,0.358-0.676,0.469c-0.263,0.111-0.553,0.166-0.868,0.166c-0.374,0-0.707-0.082-0.997-0.247
			c-0.291-0.165-0.518-0.395-0.683-0.691c-0.165-0.295-0.247-0.633-0.247-1.012c0-0.374,0.082-0.71,0.247-1.008
			c0.165-0.298,0.393-0.529,0.683-0.694c0.291-0.165,0.618-0.247,0.982-0.247C64.856,42.666,65.314,42.857,65.629,43.239z
			 M65.622,44.395c-0.025-0.404-0.159-0.725-0.402-0.964c-0.244-0.239-0.563-0.358-0.956-0.358c-0.389,0-0.714,0.121-0.975,0.362
			c-0.261,0.241-0.411,0.561-0.451,0.96H65.622z"/>
		<path fill="#1C426E" d="M70.212,43.069c0.263,0.268,0.395,0.637,0.395,1.104v2.378h-0.502v-2.26c0-0.364-0.101-0.65-0.303-0.857
			c-0.202-0.207-0.483-0.31-0.842-0.31c-0.399,0.005-0.718,0.128-0.956,0.369c-0.239,0.241-0.375,0.566-0.41,0.975v2.083h-0.495
			v-3.87h0.495v0.901c0.133-0.3,0.329-0.527,0.587-0.679c0.258-0.153,0.572-0.231,0.942-0.236
			C69.585,42.666,69.948,42.8,70.212,43.069z"/>
		<path fill="#1C426E" d="M73.879,46.285c-0.266,0.182-0.551,0.278-0.857,0.288c-0.295,0-0.529-0.091-0.702-0.273
			c-0.172-0.182-0.258-0.455-0.258-0.82v-2.304h-0.554l-0.007-0.384h0.561v-0.997h0.495v0.997l1.255-0.007v0.391h-1.255v2.223
			c0,0.478,0.177,0.716,0.532,0.716c0.197,0,0.411-0.069,0.642-0.207L73.879,46.285z"/>
		<path fill="#1C426E" d="M75.267,41.318c0.064,0.066,0.096,0.149,0.096,0.247c0,0.099-0.033,0.182-0.1,0.251
			c-0.067,0.069-0.147,0.103-0.24,0.103c-0.098,0-0.181-0.034-0.247-0.103c-0.066-0.069-0.1-0.152-0.1-0.251
			c0-0.098,0.033-0.181,0.1-0.247c0.067-0.067,0.149-0.1,0.247-0.1C75.122,41.219,75.203,41.252,75.267,41.318z M74.772,42.681
			h0.495v3.87h-0.495V42.681z"/>
		<path fill="#1C426E" d="M79.82,43.069c0.263,0.268,0.395,0.637,0.395,1.104v2.378h-0.502v-2.26c0-0.364-0.101-0.65-0.303-0.857
			c-0.202-0.207-0.483-0.31-0.842-0.31c-0.399,0.005-0.718,0.128-0.956,0.369c-0.239,0.241-0.375,0.566-0.41,0.975v2.083h-0.495
			v-3.87h0.495v0.901c0.133-0.3,0.329-0.527,0.587-0.679c0.258-0.153,0.572-0.231,0.942-0.236
			C79.194,42.666,79.557,42.8,79.82,43.069z"/>
		<path fill="#1C426E" d="M84.093,42.914c0.295,0.165,0.527,0.395,0.694,0.691c0.168,0.295,0.251,0.63,0.251,1.005
			c0,0.379-0.084,0.718-0.251,1.015c-0.167,0.298-0.399,0.529-0.694,0.694c-0.295,0.165-0.63,0.247-1.005,0.247
			c-0.374,0-0.709-0.082-1.004-0.247c-0.295-0.165-0.527-0.396-0.694-0.694c-0.168-0.298-0.251-0.636-0.251-1.015
			c0-0.374,0.084-0.709,0.251-1.005c0.167-0.295,0.399-0.526,0.694-0.691c0.295-0.165,0.63-0.247,1.004-0.247
			C83.463,42.666,83.797,42.749,84.093,42.914z M82.335,43.287c-0.221,0.128-0.394,0.308-0.517,0.539
			c-0.123,0.231-0.185,0.495-0.185,0.79c0,0.3,0.062,0.566,0.185,0.798c0.123,0.232,0.295,0.411,0.517,0.539
			c0.222,0.128,0.473,0.192,0.753,0.192c0.281,0,0.532-0.064,0.753-0.192c0.222-0.128,0.394-0.308,0.517-0.539
			c0.123-0.231,0.185-0.497,0.185-0.798c0-0.295-0.062-0.559-0.185-0.79c-0.123-0.231-0.295-0.411-0.517-0.539
			c-0.221-0.128-0.473-0.192-0.753-0.192C82.808,43.095,82.557,43.159,82.335,43.287z"/>
		<path fill="#1C426E" d="M87.593,43.15c-0.182-0.052-0.362-0.078-0.539-0.078c-0.246,0-0.444,0.048-0.594,0.144
			c-0.15,0.096-0.225,0.24-0.225,0.432c0,0.133,0.041,0.241,0.122,0.325c0.081,0.084,0.182,0.151,0.303,0.203
			c0.121,0.052,0.289,0.11,0.506,0.173c0.266,0.079,0.483,0.156,0.65,0.233c0.167,0.076,0.31,0.187,0.428,0.332
			c0.118,0.145,0.177,0.336,0.177,0.572c0,0.35-0.133,0.617-0.399,0.801c-0.266,0.185-0.598,0.277-0.997,0.277
			c-0.281,0-0.551-0.047-0.812-0.14c-0.261-0.093-0.48-0.226-0.657-0.399l0.2-0.355c0.167,0.153,0.366,0.273,0.594,0.362
			c0.229,0.089,0.462,0.133,0.698,0.133c0.261,0,0.474-0.054,0.639-0.162c0.165-0.108,0.247-0.266,0.247-0.473
			c0-0.143-0.042-0.26-0.126-0.351c-0.084-0.091-0.188-0.162-0.314-0.214c-0.126-0.052-0.299-0.112-0.521-0.181
			c-0.261-0.079-0.473-0.155-0.635-0.229c-0.162-0.074-0.3-0.181-0.413-0.321c-0.113-0.14-0.17-0.324-0.17-0.55
			c0-0.34,0.127-0.596,0.38-0.768c0.254-0.172,0.57-0.259,0.949-0.259c0.222,0,0.436,0.029,0.643,0.089
			c0.207,0.059,0.391,0.14,0.554,0.244l-0.192,0.377C87.941,43.274,87.776,43.202,87.593,43.15z"/>
	</g>
</g>
</svg>
